<svg width="48" height="48" viewBox="0 0 48 48" fill="none" xmlns="http://www.w3.org/2000/svg">
<path d="M23 42C22.716 42 22.4787 41.904 22.288 41.712C22.0973 41.52 22.0013 41.282 22 40.998C21.9987 40.714 22.0947 40.4767 22.288 40.286C22.4813 40.0954 22.7187 40 23 40H43C43.284 40 43.5213 40.096 43.712 40.288C43.9027 40.48 43.9987 40.718 44 41.002C44.0013 41.286 43.9053 41.5234 43.712 41.714C43.5187 41.9047 43.2813 42 43 42H23ZM24 37.232C24 34.916 24.7667 32.9094 26.3 31.212C27.8333 29.5174 29.7333 28.552 32 28.316V27.488C32 27.2294 32.096 26.998 32.288 26.794C32.48 26.59 32.7173 26.488 33 26.488C33.2587 26.488 33.49 26.59 33.694 26.794C33.898 26.998 34 27.2294 34 27.488V28.316C36.2587 28.552 38.1567 29.518 39.694 31.214C41.2313 32.91 42 34.916 42 37.232H24ZM26.404 35.22H39.534C39.1327 33.756 38.3373 32.55 37.148 31.602C35.96 30.6554 34.5773 30.182 33 30.182C31.416 30.182 30.0213 30.6554 28.816 31.602C27.6107 32.5487 26.8067 33.7547 26.404 35.22ZM4.078 21.77V9.61405C4.078 9.02738 4.27666 8.53405 4.67399 8.13405C5.07133 7.73405 5.56466 7.53471 6.154 7.53605H10C10.5187 7.53605 10.9787 7.71071 11.38 8.06005C11.7827 8.40805 12.0147 8.84138 12.076 9.36005V10.128L26.35 5.95205C26.6393 5.87738 26.9527 5.83405 27.29 5.82205C27.6247 5.80871 27.9373 5.85538 28.228 5.96205L40.56 9.82005C40.7907 9.89338 40.9727 10.0267 41.106 10.22C41.2393 10.4134 41.306 10.6314 41.306 10.874V11C41.306 12.2054 40.838 13.212 39.902 14.02C38.966 14.828 37.87 15.232 36.614 15.232H31.536V16.2C31.536 16.9054 31.3133 17.5294 30.868 18.072C30.424 18.6134 29.8573 19.0214 29.168 19.296L17.368 23.636C17.1853 23.7027 16.9987 23.754 16.808 23.79C16.616 23.8274 16.4253 23.846 16.236 23.846H6.154C5.56733 23.846 5.07399 23.6467 4.67399 23.248C4.27399 22.8494 4.07466 22.356 4.076 21.768M6.076 15.692V21.846H10.076V9.53805H6.076V15.692ZM12.076 17.038V21.846H16.508L28.492 17.442C28.812 17.33 29.066 17.14 29.254 16.872C29.442 16.604 29.5367 16.3007 29.538 15.962V15.232H25.68L20.768 16.878C20.5173 16.9674 20.266 16.9447 20.014 16.81C19.762 16.6754 19.5907 16.4787 19.5 16.22C19.4107 15.9427 19.426 15.6794 19.546 15.43C19.666 15.1807 19.862 15.012 20.134 14.924L25.382 13.232H36.616C37.0693 13.232 37.5853 13.0914 38.164 12.81C38.7427 12.53 39.0827 12.0987 39.184 11.516L27.208 7.81605L12.078 12.232L12.076 17.038Z" fill="#371F13"/>
</svg>
