<svg width="48" height="48" viewBox="0 0 48 48" fill="none" xmlns="http://www.w3.org/2000/svg">
<path fill-rule="evenodd" clip-rule="evenodd" d="M6 6H37V11H35V8H8V31H29.387V33H6V6ZM36 19C36.7956 19 37.5587 18.6839 38.1213 18.1213C38.6839 17.5587 39 16.7956 39 16C39 15.2044 38.6839 14.4413 38.1213 13.8787C37.5587 13.3161 36.7956 13 36 13C35.2044 13 34.4413 13.3161 33.8787 13.8787C33.3161 14.4413 33 15.2044 33 16C33 16.7956 33.3161 17.5587 33.8787 18.1213C34.4413 18.6839 35.2044 19 36 19ZM38.031 21.01C39.33 21.01 40.358 21.594 41.031 22.496C41.66 23.341 41.926 24.386 41.986 25.351C42.0454 26.3409 41.9106 27.3329 41.589 28.271C41.289 29.141 40.782 30.041 40 30.658V40.5C40.0007 40.8769 39.8596 41.2402 39.6046 41.5177C39.3496 41.7953 38.9995 41.9666 38.6239 41.9978C38.2483 42.0289 37.8748 41.9175 37.5776 41.6857C37.2804 41.454 37.0813 41.1189 37.02 40.747L35.73 33H35.432L33.974 40.776C33.9048 41.143 33.7011 41.471 33.4029 41.6958C33.1046 41.9206 32.7333 42.026 32.3614 41.9915C31.9895 41.957 31.6439 41.785 31.3921 41.5092C31.1403 41.2333 31.0005 40.8735 31 40.5V26.233C30.8 26.5376 30.6027 26.844 30.408 27.152L30.33 27.275L30.31 27.307L30.305 27.316C30.1702 27.5324 29.9825 27.7109 29.7596 27.8346C29.5367 27.9583 29.2859 28.0231 29.031 28.023H24.031C23.6332 28.023 23.2516 27.865 22.9703 27.5837C22.689 27.3024 22.531 26.9208 22.531 26.523C22.531 26.1252 22.689 25.7436 22.9703 25.4623C23.2516 25.181 23.6332 25.023 24.031 25.023H28.208C28.451 24.647 28.771 24.159 29.107 23.669C29.457 23.158 29.843 22.617 30.187 22.193C30.354 21.986 30.541 21.77 30.729 21.593C30.821 21.506 30.949 21.393 31.105 21.293C31.3798 21.1113 31.7015 21.0133 32.031 21.011L38.031 21.01Z" fill="#371F13"/>
</svg>
