<svg width="48" height="48" viewBox="0 0 48 48" fill="none" xmlns="http://www.w3.org/2000/svg">
<path d="M33.1429 24.0001C33.1429 22.7877 32.6612 21.6249 31.8039 20.7676C30.9466 19.9103 29.7838 19.4286 28.5714 19.4286H14.8571C13.6447 19.4286 12.482 19.9103 11.6247 20.7676C10.7673 21.6249 10.2857 22.7877 10.2857 24.0001V29.7144C10.2857 32.4423 11.3694 35.0585 13.2983 36.9875C15.2273 38.9164 17.8435 40.0001 20.5714 40.0001H22.8571C25.5851 40.0001 28.2013 38.9164 30.1302 36.9875C32.0592 35.0585 33.1429 32.4423 33.1429 29.7144V24.0001ZM33.1429 24.0001H35.4286C36.641 24.0001 37.8037 24.4817 38.6611 25.339C39.5184 26.1963 40 27.3591 40 28.5715C40 29.7839 39.5184 30.9467 38.6611 31.804C37.8037 32.6613 36.641 33.1429 35.4286 33.1429H33.1429M19.4286 14.8572V5.71436M24 14.8572V10.2858" stroke="#371F13" stroke-width="2.28571" stroke-linecap="round" stroke-linejoin="round"/>
</svg>
