<svg width="86" height="31" viewBox="0 0 86 31" fill="none" xmlns="http://www.w3.org/2000/svg">
<g clip-path="url(#clip0_296_127)">
<path d="M42.1073 10.0658H42.1181L43.6864 7.09954C43.7253 7.02404 43.7576 6.97873 43.7857 6.96795C43.8137 6.955 43.8504 6.94422 43.9 6.93343H45.3281C45.3928 6.93343 45.4274 6.96363 45.4274 7.02188C45.4274 7.05208 45.4058 7.09523 45.3605 7.15132C44.942 7.8589 44.5278 8.57295 44.1179 9.29132C43.708 10.0118 43.2895 10.7237 42.8645 11.4313V14.3781C42.8645 14.5399 42.7869 14.6219 42.6315 14.6219H41.5745C41.4299 14.6219 41.3566 14.5399 41.3566 14.3781V11.4421L38.8671 7.15994C38.8499 7.14269 38.8369 7.1168 38.8261 7.08444C38.8153 7.05208 38.811 7.02619 38.811 7.00894C38.811 6.95716 38.8434 6.93127 38.9103 6.93127H40.3297C40.3578 6.93775 40.3794 6.94206 40.3966 6.94422C40.4139 6.94422 40.4311 6.95285 40.4462 6.96148C40.4613 6.9701 40.4764 6.98952 40.4937 7.01325C40.511 7.03698 40.5282 7.0715 40.5541 7.1168L42.1116 10.0636L42.1073 10.0658Z" fill="#3C2415"/>
<path d="M50.7688 13.8971C50.4647 14.1559 50.1324 14.3587 49.7722 14.5076C49.4119 14.6564 49.015 14.7298 48.5835 14.7298C48.1176 14.7298 47.6753 14.6413 47.259 14.4666C46.8405 14.2897 46.4759 14.0481 46.1609 13.7417C45.846 13.4354 45.5979 13.0751 45.4124 12.6631C45.2268 12.2511 45.1362 11.8067 45.1362 11.3299C45.1362 11.0236 45.1751 10.7259 45.2506 10.439C45.3261 10.1521 45.4339 9.88456 45.5742 9.63432C45.7144 9.38408 45.8848 9.15541 46.0833 8.94615C46.2839 8.7369 46.5061 8.55785 46.7542 8.41115C47.0001 8.2623 47.2676 8.14797 47.5567 8.06599C47.8457 7.98402 48.1499 7.94519 48.4714 7.94519C48.7345 7.94519 48.9934 7.97755 49.248 8.04011C49.5025 8.10267 49.7463 8.19543 49.975 8.31192C50.2036 8.42841 50.4194 8.57079 50.62 8.73906C50.8206 8.90732 50.9954 9.09501 51.1485 9.30642C51.3556 9.59549 51.5066 9.90829 51.6037 10.2427C51.7008 10.577 51.7482 10.9481 51.7482 11.3558C51.7482 11.455 51.7439 11.5392 51.7353 11.6061C51.7267 11.6729 51.7051 11.7269 51.6706 11.77C51.6361 11.811 51.5843 11.8412 51.5152 11.8606C51.4462 11.88 51.3491 11.8887 51.2262 11.8887H46.6334C46.6787 12.1367 46.7628 12.3568 46.8901 12.5488C47.0152 12.7408 47.1662 12.9026 47.3388 13.0363C47.5114 13.1701 47.6991 13.2693 47.904 13.3362C48.1068 13.4031 48.3117 13.4376 48.5145 13.4376C48.6698 13.4376 48.8187 13.4225 48.9632 13.3901C49.1056 13.3599 49.2393 13.3168 49.3645 13.265C49.4896 13.2132 49.6039 13.1528 49.7096 13.0859C49.8153 13.0191 49.9081 12.9479 49.9858 12.8767C49.9858 12.8724 49.9858 12.8724 49.9901 12.8724C50.0311 12.8335 50.072 12.8033 50.1087 12.7818C50.1475 12.7602 50.1864 12.7472 50.2274 12.7472C50.2576 12.7472 50.2942 12.758 50.3331 12.7774C50.3719 12.799 50.4107 12.8335 50.4496 12.881C50.5423 12.9953 50.6221 13.0903 50.6869 13.1658C50.7516 13.2413 50.8055 13.306 50.8465 13.3577C50.8875 13.4095 50.9177 13.4548 50.9371 13.4915C50.9565 13.5303 50.9651 13.567 50.9651 13.6058C50.9651 13.7029 50.9004 13.8 50.7688 13.8949V13.8971ZM48.4692 9.2266C48.2664 9.2266 48.0679 9.26327 47.8738 9.33878C47.6796 9.41212 47.5027 9.51351 47.3431 9.64079C47.1835 9.76807 47.0433 9.91908 46.9246 10.0917C46.806 10.2642 46.7175 10.4498 46.6636 10.6504H50.3288C50.2727 10.439 50.1907 10.247 50.0785 10.0722C49.9663 9.89751 49.8304 9.74865 49.6729 9.62138C49.5133 9.49626 49.3321 9.39702 49.1293 9.32799C48.9265 9.25896 48.7065 9.22444 48.4714 9.22444L48.4692 9.2266Z" fill="#3C2415"/>
<path d="M55.0811 14.6219C54.8093 14.6176 54.5526 14.5766 54.3131 14.4968C54.0737 14.417 53.8644 14.3026 53.6875 14.1516C53.5106 14.0006 53.3682 13.8172 53.2647 13.5972C53.1612 13.3772 53.1094 13.1291 53.1094 12.8486V9.34956H52.514C52.4147 9.34956 52.3392 9.32799 52.2896 9.28269C52.24 9.23738 52.2141 9.16404 52.2141 9.06049V8.31839C52.2141 8.21916 52.24 8.14797 52.2896 8.10698C52.3392 8.06599 52.4147 8.04442 52.514 8.04442H53.1094C53.1094 7.86105 53.1094 7.67984 53.1115 7.49863C53.1137 7.31742 53.1137 7.13621 53.1137 6.95285C53.1137 6.88381 53.1353 6.82988 53.1784 6.78889C53.2216 6.75006 53.2884 6.71339 53.3769 6.68319C53.4351 6.66162 53.5063 6.63789 53.5883 6.60769C53.6703 6.57748 53.7566 6.54944 53.845 6.52139C53.9334 6.49335 54.0176 6.46962 54.1017 6.45236C54.1837 6.43295 54.2527 6.42432 54.3088 6.42432C54.4167 6.42432 54.4857 6.45452 54.5181 6.51277C54.5504 6.57101 54.5677 6.64867 54.5677 6.74575C54.5677 6.96363 54.5677 7.17936 54.5655 7.39508C54.5634 7.61081 54.5634 7.82654 54.5634 8.04442H55.3098C55.4004 8.04442 55.4694 8.06815 55.5169 8.11345C55.5643 8.16091 55.5902 8.2321 55.5902 8.33349V9.04107C55.5902 9.15109 55.5665 9.23091 55.5169 9.27837C55.4694 9.32583 55.4004 9.34956 55.3098 9.34956H54.5634V10.3311C54.5634 10.4498 54.5634 10.5619 54.5655 10.6655C54.5655 10.769 54.5677 10.8812 54.5677 11.002V11.9879C54.5677 11.9879 54.5677 12.0008 54.5655 12.0095C54.5634 12.0181 54.5634 12.0224 54.5634 12.031V12.7106C54.5634 12.9392 54.6087 13.1032 54.6971 13.2024C54.7877 13.3017 54.9323 13.3534 55.1329 13.3534C55.2062 13.3534 55.2623 13.3793 55.3033 13.4311C55.3443 13.4829 55.3659 13.5454 55.3659 13.6166V14.3371C55.3659 14.4278 55.34 14.4968 55.2904 14.5464C55.2407 14.596 55.1696 14.6219 55.0811 14.6219Z" fill="#3C2415"/>
<path d="M62.0813 14.4191C62.0813 14.458 62.0684 14.486 62.0425 14.5076C62.0166 14.5291 61.9842 14.5442 61.9476 14.5507C61.9087 14.5593 61.8678 14.5637 61.8225 14.5658C61.7771 14.5658 61.7383 14.568 61.7038 14.568H61.1817C61.0825 14.568 61.007 14.5356 60.9595 14.4731C60.9121 14.4083 60.8776 14.335 60.8603 14.253L60.8042 13.7827C60.7287 13.8971 60.6338 14.0071 60.5195 14.1106C60.4051 14.2163 60.2714 14.3091 60.1161 14.3911C59.9607 14.4731 59.7817 14.5378 59.5811 14.5852C59.3783 14.6327 59.1496 14.6586 58.8951 14.6586C58.4852 14.6586 58.1228 14.5852 57.8078 14.4385C57.4928 14.2918 57.2296 14.0912 57.0182 13.8388C56.8068 13.5864 56.645 13.2866 56.535 12.9414C56.425 12.5962 56.3689 12.2252 56.3689 11.8283V8.37448C56.3689 8.24936 56.3991 8.1566 56.4573 8.09188C56.5156 8.02716 56.5997 7.99696 56.7119 7.99696H57.4993C57.6374 7.99696 57.7301 8.02285 57.7754 8.07462C57.8229 8.1264 57.8445 8.217 57.8445 8.34859V11.8024C57.8445 11.9857 57.8725 12.1648 57.9308 12.3374C57.9868 12.5121 58.0731 12.6674 58.1875 12.8055C58.3018 12.9436 58.4442 13.0536 58.6146 13.1377C58.785 13.2197 58.9857 13.2628 59.2122 13.2628C59.3718 13.2628 59.5358 13.2348 59.7083 13.1809C59.8809 13.1248 60.0384 13.0406 60.1786 12.9263C60.321 12.812 60.4375 12.6696 60.5303 12.4992C60.623 12.3287 60.6705 12.1281 60.6705 11.9016V8.54059C60.6705 8.47803 60.6748 8.41547 60.6813 8.35075C60.6877 8.28603 60.7028 8.22779 60.7244 8.17385C60.746 8.11992 60.7783 8.07678 60.8172 8.04442C60.856 8.01206 60.9121 7.9948 60.9811 7.9948H61.8354C61.9497 7.9948 62.0339 8.02285 62.0856 8.07678C62.1374 8.13071 62.1655 8.21053 62.1655 8.30976V14.2638C62.1655 14.3328 62.1374 14.3846 62.0835 14.4191H62.0813Z" fill="#3C2415"/>
<path d="M38.809 19.329C38.809 18.9666 38.8565 18.6172 38.9492 18.2785C39.042 17.9398 39.1757 17.6248 39.3483 17.3314C39.5209 17.038 39.728 16.7705 39.9675 16.5289C40.2069 16.2873 40.4744 16.0802 40.7678 15.9098C41.0612 15.7394 41.3761 15.6056 41.7127 15.5107C42.0492 15.4158 42.4008 15.3683 42.7654 15.3683C43.13 15.3683 43.4773 15.4158 43.8138 15.5107C44.1504 15.6056 44.4653 15.7394 44.7587 15.9098C45.0521 16.0802 45.3196 16.2873 45.5612 16.5289C45.8028 16.7705 46.0099 17.038 46.1804 17.3314C46.3508 17.6248 46.4845 17.9398 46.5794 18.2785C46.6744 18.6172 46.7218 18.9688 46.7218 19.3355C46.7218 19.726 46.6679 20.0992 46.56 20.4594C46.4522 20.8176 46.3033 21.1519 46.1092 21.4583C45.915 21.7646 45.682 22.0407 45.4124 22.2823C45.1427 22.5239 44.8407 22.7246 44.5128 22.8821C44.3532 22.9576 44.1892 23.0201 44.0166 23.0719C43.8462 23.1215 43.6715 23.1668 43.4946 23.2035V24.5755C43.4881 24.7265 43.404 24.8042 43.2465 24.8042H42.2239C42.0729 24.8042 41.9974 24.7265 41.9974 24.5712V23.1992C41.8982 23.1754 41.799 23.1474 41.7019 23.1172C41.6048 23.087 41.512 23.0525 41.4214 23.0136C41.3654 23.0093 41.3157 23.0029 41.2704 22.9899C41.2251 22.977 41.1798 22.9619 41.1302 22.9403C40.7851 22.7893 40.4701 22.5908 40.1853 22.3492C39.9006 22.1076 39.6546 21.8315 39.4497 21.5187C39.2448 21.2059 39.0851 20.865 38.973 20.4961C38.8608 20.1272 38.8047 19.7389 38.8047 19.3312L38.809 19.329ZM40.3061 19.3204C40.3061 19.6699 40.3687 19.9956 40.496 20.2998C40.6233 20.604 40.7937 20.8672 41.0137 21.0915C41.2338 21.3159 41.4926 21.4928 41.7903 21.6244C42.088 21.756 42.4116 21.8207 42.7611 21.8207C43.1106 21.8207 43.4277 21.756 43.7276 21.6244C44.0253 21.4928 44.2863 21.3159 44.5063 21.0915C44.7264 20.8672 44.9011 20.604 45.0262 20.2998C45.1513 19.9956 45.2161 19.6699 45.2161 19.3204C45.2161 18.9709 45.1535 18.6517 45.0262 18.3475C44.8989 18.0433 44.7264 17.778 44.5063 17.5536C44.2863 17.3271 44.0253 17.1481 43.7276 17.0186C43.4298 16.8892 43.1063 16.8223 42.7611 16.8223C42.4159 16.8223 42.088 16.887 41.7903 17.0186C41.4926 17.1502 41.2338 17.3293 41.0137 17.5536C40.7937 17.7801 40.6211 18.0455 40.496 18.3475C40.3709 18.6495 40.3061 18.9753 40.3061 19.3204Z" fill="#3C2415"/>
<path d="M54.2853 22.8605C54.2853 22.923 54.2724 22.9727 54.2465 23.0136C54.2206 23.0525 54.1861 23.0848 54.1451 23.1064C54.1041 23.128 54.0566 23.1452 54.0027 23.1539C53.9488 23.1625 53.8927 23.1668 53.8344 23.1668H53.1872C53.0772 23.1668 52.9996 23.1366 52.9564 23.0784C52.9133 23.0201 52.8809 22.9446 52.8615 22.8562L52.8313 22.4161C52.7105 22.5369 52.5767 22.6491 52.43 22.7548C52.2834 22.8605 52.1259 22.9511 51.9555 23.0287C51.7872 23.1064 51.606 23.1668 51.4161 23.21C51.2263 23.2531 51.0321 23.2747 50.8315 23.2747C50.5209 23.2747 50.221 23.2337 49.9341 23.1539C49.645 23.0719 49.3754 22.9597 49.123 22.813C48.8706 22.6663 48.6419 22.4894 48.437 22.2823C48.232 22.0752 48.0551 21.8466 47.9084 21.5942C47.7617 21.3418 47.6474 21.0721 47.5676 20.7809C47.4856 20.4918 47.4468 20.1898 47.4468 19.8748C47.4468 19.5599 47.4878 19.2579 47.5676 18.9688C47.6496 18.6797 47.7617 18.4079 47.9084 18.1555C48.0551 17.9031 48.232 17.6744 48.437 17.4695C48.6419 17.2645 48.8706 17.0877 49.123 16.941C49.3754 16.7943 49.645 16.6799 49.9341 16.6001C50.2232 16.5181 50.5209 16.4793 50.8315 16.4793C51.0516 16.4793 51.263 16.503 51.4636 16.5483C51.6642 16.5958 51.8519 16.6605 52.0245 16.7446C52.1992 16.8288 52.361 16.9302 52.5077 17.051C52.6566 17.1696 52.7903 17.3012 52.9111 17.4414L52.9845 16.887C53.0017 16.8245 53.019 16.7749 53.0341 16.7339C53.0492 16.695 53.0686 16.6627 53.0902 16.6389C53.1117 16.6152 53.1419 16.598 53.1765 16.5893C53.211 16.5807 53.2541 16.5764 53.3059 16.5764H53.8236C53.8797 16.5764 53.9337 16.5807 53.9897 16.5915C54.0458 16.6023 54.0955 16.6174 54.1408 16.6411C54.1861 16.6627 54.2206 16.695 54.2465 16.7339C54.2724 16.7727 54.2853 16.8223 54.2853 16.8806V22.8605ZM48.9008 19.8727C48.9008 20.1488 48.9482 20.4098 49.0453 20.6579C49.1424 20.9038 49.2761 21.1217 49.4487 21.3073C49.6213 21.4928 49.8241 21.6416 50.0571 21.7495C50.29 21.8574 50.5446 21.9134 50.8207 21.9134C51.0969 21.9134 51.3622 21.8595 51.606 21.7495C51.8497 21.6416 52.0612 21.4928 52.2402 21.3073C52.4193 21.1217 52.5616 20.9038 52.6652 20.6579C52.7687 20.412 52.8205 20.1488 52.8205 19.8727C52.8205 19.5965 52.7687 19.3398 52.6652 19.0939C52.5616 18.848 52.4193 18.6301 52.2402 18.4446C52.0612 18.259 51.8497 18.1102 51.606 18.0002C51.3622 17.8902 51.1012 17.8341 50.8207 17.8341C50.5403 17.8341 50.29 17.8902 50.0571 18.0002C49.8241 18.1102 49.6213 18.259 49.4487 18.4446C49.2761 18.6301 49.1424 18.848 49.0453 19.0939C48.9482 19.3398 48.9008 19.6009 48.9008 19.8727Z" fill="#3C2415"/>
<path d="M56.8783 17.2689C56.9646 17.1588 57.0638 17.0575 57.1739 16.9625C57.2839 16.8698 57.4112 16.7878 57.5535 16.7188C57.6959 16.6497 57.8599 16.5958 58.0432 16.5591C58.2266 16.5203 58.4337 16.503 58.6645 16.503C59.055 16.503 59.4002 16.5785 59.7 16.7274C59.9999 16.8784 60.2523 17.0812 60.4551 17.3379C60.6578 17.5946 60.8132 17.8966 60.9189 18.2418C61.0246 18.5869 61.0763 18.9537 61.0763 19.3398V22.7936C61.0763 22.9187 61.0461 23.0115 60.9879 23.0741C60.9297 23.1366 60.8455 23.1668 60.7333 23.1668H59.9459C59.8079 23.1668 59.7151 23.1409 59.6698 23.0892C59.6224 23.0374 59.6008 22.9468 59.6008 22.8152V19.342C59.6008 19.1586 59.5684 18.9817 59.5059 18.8091C59.4433 18.6366 59.3505 18.4834 59.2319 18.3518C59.1132 18.2181 58.9687 18.1124 58.8004 18.0304C58.6322 17.9484 58.4423 17.9096 58.2352 17.9096C58.0756 17.9096 57.9181 17.9398 57.7585 18.0002C57.5988 18.0606 57.4565 18.1469 57.327 18.2612C57.1976 18.3755 57.0919 18.5158 57.0078 18.6797C56.9258 18.8458 56.8826 19.0335 56.8783 19.2449V22.6253C56.8783 22.6901 56.874 22.7569 56.8675 22.8217C56.8611 22.8864 56.846 22.9468 56.8244 22.9985C56.8028 23.0503 56.7705 23.0913 56.7295 23.1237C56.6885 23.1539 56.6346 23.1711 56.5698 23.1711H55.7156C55.6012 23.1711 55.5171 23.1452 55.4653 23.0913C55.4114 23.0374 55.3855 22.9619 55.3855 22.8605V14.9498C55.3855 14.8592 55.4135 14.7859 55.4675 14.7276C55.5236 14.6694 55.6034 14.6392 55.7112 14.6392H56.5655C56.6453 14.6392 56.7165 14.6694 56.7834 14.7298C56.8503 14.7902 56.8826 14.8614 56.8826 14.9455V17.2753L56.8783 17.2689Z" fill="#3C2415"/>
<path d="M61.6415 17.01C61.635 16.9819 61.6285 16.9582 61.6242 16.9366C61.6199 16.9151 61.6156 16.8935 61.6113 16.8698C61.6069 16.846 61.6069 16.8245 61.6069 16.8072C61.6069 16.7425 61.6307 16.6886 61.676 16.6497C61.7234 16.6109 61.7925 16.5893 61.8852 16.5893H62.8172C62.979 16.5893 63.089 16.6691 63.1429 16.8266C63.2055 17.0057 63.281 17.2192 63.3673 17.463C63.4557 17.7089 63.5485 17.9678 63.6477 18.2396C63.7469 18.5114 63.8462 18.7876 63.9497 19.0659C64.0533 19.3441 64.1503 19.6052 64.2431 19.8533C64.3337 20.0992 64.4178 20.3214 64.4912 20.5155C64.5645 20.7097 64.6228 20.8585 64.6638 20.9578C64.8191 20.5199 65.0176 19.959 65.2592 19.2751C65.5008 18.5913 65.7963 17.7737 66.1436 16.8202C66.1739 16.7382 66.217 16.6778 66.2709 16.6411C66.3249 16.6044 66.3917 16.5872 66.4759 16.5872H67.3776C67.4855 16.5872 67.5588 16.6044 67.5976 16.6389C67.6365 16.6735 67.658 16.7188 67.658 16.7727C67.658 16.8007 67.6537 16.8353 67.6451 16.8762C67.6365 16.9172 67.6278 16.9496 67.6214 16.969L67.0821 18.2785C67.1511 18.451 67.2309 18.643 67.3237 18.8566C67.4143 19.068 67.5114 19.2924 67.6127 19.5254C67.7141 19.7583 67.8155 19.9956 67.9191 20.2373C68.0205 20.4789 68.1175 20.714 68.206 20.9405C68.2686 20.7744 68.3419 20.5824 68.426 20.3667C68.5102 20.1488 68.5986 19.918 68.6892 19.6721C68.7798 19.4261 68.8747 19.1759 68.974 18.917C69.0732 18.6581 69.1681 18.4036 69.2631 18.1533C69.358 17.9031 69.4486 17.6636 69.5349 17.4371C69.6212 17.2085 69.6988 17.0035 69.7678 16.8202C69.798 16.7382 69.839 16.6778 69.8865 16.6411C69.934 16.6044 69.9987 16.5872 70.0785 16.5872H70.9371C71.0363 16.5872 71.114 16.6023 71.1658 16.6303C71.2175 16.6605 71.2434 16.7101 71.2434 16.7835C71.2434 16.8072 71.2391 16.8396 71.2326 16.8827C71.2262 16.9237 71.2197 16.9539 71.2111 16.9712L68.7669 22.9554C68.7539 22.9791 68.7388 23.0029 68.7237 23.0287C68.7086 23.0525 68.6871 23.0762 68.6612 23.0956C68.6353 23.1172 68.6029 23.1323 68.5619 23.1452C68.5231 23.1582 68.4757 23.1625 68.4196 23.1625H67.9752C67.8544 23.1625 67.7724 23.1409 67.7271 23.0956C67.6818 23.0503 67.6451 23.0029 67.6192 22.9511C67.4164 22.4571 67.2137 21.9674 67.013 21.4841C66.8124 21.0009 66.6118 20.5091 66.4133 20.0172L65.2225 22.9576C65.1945 23.005 65.1621 23.0525 65.1211 23.0978C65.0823 23.1431 65.0089 23.1647 64.9011 23.1647H64.4243C64.2992 23.1647 64.2172 23.1431 64.1741 23.0999C64.1309 23.0568 64.0986 23.0093 64.0792 22.9576L61.6415 17.0078V17.01Z" fill="#3C2415"/>
<path d="M78.4789 22.8605C78.4789 22.923 78.4659 22.9727 78.4401 23.0136C78.4142 23.0525 78.3797 23.0848 78.3387 23.1064C78.2977 23.128 78.2502 23.1452 78.1963 23.1539C78.1424 23.1625 78.0863 23.1668 78.028 23.1668H77.3809C77.2708 23.1668 77.1932 23.1366 77.15 23.0784C77.1069 23.0201 77.0745 22.9446 77.0551 22.8562L77.0249 22.4161C76.9041 22.5369 76.7703 22.6491 76.6237 22.7548C76.477 22.8605 76.3195 22.9511 76.1491 23.0287C75.9808 23.1064 75.7996 23.1668 75.6097 23.21C75.4199 23.2531 75.2257 23.2747 75.0251 23.2747C74.7145 23.2747 74.4146 23.2337 74.1277 23.1539C73.8386 23.0719 73.569 22.9597 73.3166 22.813C73.0642 22.6663 72.8355 22.4894 72.6306 22.2823C72.4256 22.0752 72.2487 21.8466 72.102 21.5942C71.9553 21.3418 71.841 21.0721 71.7612 20.7809C71.6792 20.4918 71.6404 20.1898 71.6404 19.8748C71.6404 19.5599 71.6814 19.2579 71.7612 18.9688C71.8432 18.6797 71.9553 18.4079 72.102 18.1555C72.2487 17.9031 72.4256 17.6744 72.6306 17.4695C72.8355 17.2645 73.0642 17.0877 73.3166 16.941C73.569 16.7943 73.8386 16.6799 74.1277 16.6001C74.4168 16.5181 74.7145 16.4793 75.0251 16.4793C75.2452 16.4793 75.4566 16.503 75.6572 16.5483C75.8578 16.5958 76.0455 16.6605 76.2181 16.7446C76.3928 16.8288 76.5546 16.9302 76.7013 17.051C76.8502 17.1696 76.9839 17.3012 77.1047 17.4414L77.1781 16.887C77.1953 16.8245 77.2126 16.7749 77.2277 16.7339C77.2428 16.695 77.2622 16.6627 77.2838 16.6389C77.3053 16.6152 77.3355 16.598 77.3701 16.5893C77.4046 16.5807 77.4477 16.5764 77.4995 16.5764H78.0172C78.0733 16.5764 78.1273 16.5807 78.1834 16.5915C78.2394 16.6023 78.2891 16.6174 78.3344 16.6411C78.3797 16.6627 78.4142 16.695 78.4401 16.7339C78.4659 16.7727 78.4789 16.8223 78.4789 16.8806V22.8605ZM73.0944 19.8727C73.0944 20.1488 73.1418 20.4098 73.2389 20.6579C73.336 20.9038 73.4697 21.1217 73.6423 21.3073C73.8149 21.4928 74.0177 21.6416 74.2507 21.7495C74.4837 21.8574 74.7382 21.9134 75.0143 21.9134C75.2905 21.9134 75.5558 21.8595 75.7996 21.7495C76.0433 21.6416 76.2548 21.4928 76.4338 21.3073C76.6129 21.1217 76.7552 20.9038 76.8588 20.6579C76.9623 20.412 77.0141 20.1488 77.0141 19.8727C77.0141 19.5965 76.9623 19.3398 76.8588 19.0939C76.7552 18.848 76.6129 18.6301 76.4338 18.4446C76.2548 18.259 76.0433 18.1102 75.7996 18.0002C75.5558 17.8902 75.2948 17.8341 75.0143 17.8341C74.7339 17.8341 74.4837 17.8902 74.2507 18.0002C74.0177 18.1102 73.8149 18.259 73.6423 18.4446C73.4697 18.6301 73.336 18.848 73.2389 19.0939C73.1418 19.3398 73.0944 19.6009 73.0944 19.8727Z" fill="#3C2415"/>
<path d="M81.0719 17.2689C81.1582 17.1588 81.2574 17.0575 81.3675 16.9625C81.4775 16.8698 81.6048 16.7878 81.7471 16.7188C81.8895 16.6497 82.0535 16.5958 82.2368 16.5591C82.4202 16.5203 82.6273 16.503 82.8581 16.503C83.2486 16.503 83.5938 16.5785 83.8936 16.7274C84.1935 16.8784 84.4459 17.0812 84.6487 17.3379C84.8514 17.5946 85.0068 17.8966 85.1125 18.2418C85.2182 18.5869 85.2699 18.9537 85.2699 19.3398V22.7936C85.2699 22.9187 85.2397 23.0115 85.1815 23.0741C85.1233 23.1366 85.0391 23.1668 84.9269 23.1668H84.1395C84.0015 23.1668 83.9087 23.1409 83.8634 23.0892C83.816 23.0374 83.7944 22.9468 83.7944 22.8152V19.342C83.7944 19.1586 83.762 18.9817 83.6995 18.8091C83.6369 18.6366 83.5441 18.4834 83.4255 18.3518C83.3068 18.2181 83.1623 18.1124 82.994 18.0304C82.8258 17.9484 82.6359 17.9096 82.4288 17.9096C82.2692 17.9096 82.1117 17.9398 81.9521 18.0002C81.7924 18.0606 81.6501 18.1469 81.5206 18.2612C81.3912 18.3755 81.2855 18.5158 81.2014 18.6797C81.1194 18.8458 81.0762 19.0335 81.0719 19.2449V22.6253C81.0719 22.6901 81.0676 22.7569 81.0611 22.8217C81.0547 22.8864 81.0396 22.9468 81.018 22.9985C80.9964 23.0503 80.9641 23.0913 80.9231 23.1237C80.8821 23.1539 80.8282 23.1711 80.7634 23.1711H79.9092C79.7948 23.1711 79.7107 23.1452 79.6589 23.0913C79.605 23.0374 79.5791 22.9619 79.5791 22.8605V14.9498C79.5791 14.8592 79.6071 14.7859 79.6611 14.7276C79.7172 14.6694 79.797 14.6392 79.9048 14.6392H80.7591C80.8389 14.6392 80.9101 14.6694 80.977 14.7298C81.0439 14.7902 81.0762 14.8614 81.0762 14.9455V17.2753L81.0719 17.2689Z" fill="#3C2415"/>
<path d="M15.4934 0C6.93775 0 0 6.93775 0 15.4956C0 24.0534 6.93775 30.9912 15.4934 30.9912C24.0491 30.9912 30.9912 24.0513 30.9912 15.4956C30.9912 6.93991 24.0513 0 15.4934 0ZM13.3707 20.4443C12.7214 20.1596 12.1562 19.7734 11.6816 19.2837C11.2048 18.7962 10.8273 18.2202 10.5533 17.5601C10.2772 16.9 10.1413 16.1902 10.1413 15.4309C10.1413 15.3877 10.1456 15.3467 10.1478 15.3058C10.9869 15.3575 11.7333 15.4719 12.4086 15.6962C12.8357 15.8386 13.2197 16.0069 13.6317 16.2291C14.0395 16.4469 14.486 16.7101 15.0167 16.9561C15.5387 17.202 16.1579 17.3918 16.777 17.4716C17.3983 17.545 18.0282 17.5191 18.615 17.381C19.4024 17.202 20.1208 16.8698 20.7356 16.4124C20.6687 16.8094 20.5609 17.1912 20.4098 17.5601C20.1337 18.2202 19.7584 18.7962 19.2773 19.2837C18.7962 19.7713 18.2289 20.1596 17.5795 20.4443C16.9302 20.7313 16.2312 20.8715 15.4805 20.8715C14.7298 20.8715 14.0179 20.7291 13.3685 20.4443H13.3707ZM20.8133 15.6833C19.9676 15.7178 19.1953 15.7523 18.4748 15.679C18.011 15.6358 17.573 15.5603 17.1589 15.4438C16.7403 15.3187 16.3499 15.1763 15.9184 14.9757C15.4891 14.7837 15.0102 14.5399 14.4472 14.3393C13.8928 14.1344 13.2521 14.0028 12.6351 14.0049C11.7549 14.0049 10.9071 14.2401 10.1995 14.6672C10.2599 14.1969 10.3764 13.7439 10.5555 13.3124C10.8294 12.6523 11.2048 12.0742 11.6837 11.5823C12.1583 11.0905 12.7235 10.7022 13.3729 10.4152C14.0222 10.1283 14.7255 9.98811 15.4848 9.98811C16.2442 9.98811 16.9345 10.1305 17.5838 10.4152C18.2332 10.7 18.8005 11.0883 19.2816 11.5823C19.7605 12.0742 20.138 12.6523 20.4142 13.3124C20.6881 13.9726 20.8262 14.678 20.8262 15.4287C20.8262 15.515 20.8176 15.597 20.8154 15.6833H20.8133Z" fill="#C49A6C"/>
<path d="M23.7946 13.1658C23.5875 12.4301 23.2985 11.742 22.9253 11.1013C22.5542 10.4649 22.1055 9.88025 21.5813 9.35604C21.0571 8.83182 20.4725 8.38096 19.8339 8.00991C19.1954 7.6367 18.5115 7.34979 17.7759 7.14269C17.0446 6.93559 16.2852 6.83204 15.4957 6.83204C14.7061 6.83204 13.936 6.93559 13.2025 7.14269C12.4712 7.34979 11.7873 7.6367 11.1466 8.00991C10.5081 8.38311 9.92561 8.82967 9.40571 9.35604C8.88365 9.88025 8.43494 10.4649 8.05958 11.1013C7.68206 11.7398 7.39514 12.428 7.19236 13.1658C6.98957 13.9014 6.88818 14.6629 6.88818 15.4525C6.88818 16.3391 7.00899 17.1826 7.25492 17.9872C7.49869 18.7897 7.84385 19.5318 8.2904 20.2114C8.73696 20.8909 9.27196 21.4928 9.89109 22.0192C10.5102 22.5455 11.1962 22.9748 11.9491 23.3027C12.0548 23.348 12.1562 23.3847 12.2533 23.4106C12.3504 23.4365 12.4604 23.4537 12.5812 23.4624C12.7775 23.5443 12.9803 23.6198 13.1895 23.6867C13.3988 23.7557 13.6124 23.8162 13.8302 23.8679V26.8536C13.8302 27.1923 13.9964 27.3584 14.3243 27.3584H16.5462C16.8914 27.3584 17.0683 27.1944 17.0834 26.8644V23.8809C17.4695 23.7967 17.8449 23.7018 18.2181 23.5918C18.5935 23.4818 18.9516 23.3459 19.2967 23.1798C20.013 22.8324 20.6644 22.3988 21.2555 21.8725C21.8466 21.3482 22.3536 20.7507 22.7742 20.0819C23.1949 19.4132 23.5228 18.6883 23.7558 17.9074C23.9888 17.1265 24.1074 16.311 24.1074 15.4632C24.1074 14.6672 24.0039 13.9014 23.7968 13.1658H23.7946ZM20.4142 17.5601C20.1381 18.2202 19.7627 18.7962 19.2816 19.2837C18.8006 19.7713 18.2332 20.1596 17.5839 20.4444C16.9345 20.7313 16.2356 20.8715 15.4849 20.8715C14.7341 20.8715 14.0222 20.7291 13.3729 20.4444C12.7236 20.1596 12.1584 19.7734 11.6838 19.2837C11.207 18.7962 10.8295 18.2202 10.5555 17.5601C10.2794 16.9 10.1435 16.1902 10.1435 15.4309C10.1435 15.3877 10.1478 15.3467 10.15 15.3058C10.9891 15.3575 11.7355 15.4719 12.4108 15.6962C12.8379 15.8386 13.2219 16.0069 13.6339 16.2291C14.0417 16.447 14.4882 16.7101 15.0189 16.9561C15.541 17.202 16.1601 17.3918 16.7792 17.4716C17.4005 17.545 18.0304 17.5191 18.6172 17.381C19.4046 17.202 20.123 16.8698 20.7378 16.4124C20.6709 16.8094 20.5631 17.1912 20.412 17.5601H20.4142ZM20.8133 15.6833C19.9677 15.7178 19.1954 15.7523 18.4748 15.679C18.011 15.6358 17.5731 15.5603 17.1589 15.4438C16.7404 15.3187 16.3499 15.1763 15.9185 14.9757C15.4892 14.7837 15.0103 14.5399 14.4472 14.3393C13.8928 14.1344 13.2521 14.0028 12.6351 14.0049C11.755 14.0049 10.9072 14.2401 10.1996 14.6672C10.26 14.1969 10.3765 13.7439 10.5555 13.3125C10.8295 12.6523 11.2049 12.0742 11.6838 11.5823C12.1584 11.0905 12.7236 10.7022 13.3729 10.4153C14.0222 10.1283 14.7255 9.98811 15.4849 9.98811C16.2442 9.98811 16.9345 10.1305 17.5839 10.4153C18.2332 10.7 18.8006 11.0883 19.2816 11.5823C19.7606 12.0742 20.1381 12.6523 20.4142 13.3125C20.6882 13.9726 20.8262 14.678 20.8262 15.4287C20.8262 15.515 20.8176 15.597 20.8155 15.6833H20.8133Z" fill="#FFF0E1"/>
<path d="M20.7378 16.4124C20.6709 16.8094 20.5631 17.1912 20.4121 17.5601C20.1359 18.2202 19.7606 18.7962 19.2795 19.2837C18.7984 19.7713 18.2311 20.1596 17.5817 20.4443C16.9324 20.7313 16.2335 20.8715 15.4827 20.8715C14.732 20.8715 14.0201 20.7291 13.3708 20.4443C12.7214 20.1596 12.1562 19.7734 11.6816 19.2837C11.2049 18.7962 10.8274 18.2202 10.5534 17.5601C10.2773 16.9 10.1414 16.1902 10.1414 15.4309C10.1414 15.3877 10.1457 15.3467 10.1478 15.3058C10.987 15.3575 11.7334 15.4719 12.4086 15.6962C12.8358 15.8386 13.2198 16.0069 13.6318 16.2291C14.0395 16.4469 14.4861 16.7101 15.0168 16.9561C15.5388 17.202 16.158 17.3918 16.7771 17.4716C17.3984 17.545 18.0283 17.5191 18.6151 17.381C19.4025 17.202 20.1208 16.8698 20.7357 16.4124H20.7378Z" fill="#603913"/>
<path d="M20.824 15.4309C20.824 15.5172 20.8153 15.5991 20.8132 15.6854C19.9675 15.7199 19.1952 15.7545 18.4747 15.6811C18.0109 15.638 17.573 15.5625 17.1588 15.446C16.7403 15.3209 16.3498 15.1785 15.9184 14.9779C15.4891 14.7859 15.0102 14.5421 14.4471 14.3415C13.8927 14.1365 13.252 14.0049 12.635 14.0071C11.7548 14.0071 10.907 14.2422 10.1995 14.6694C10.2599 14.1991 10.3764 13.7461 10.5554 13.3146C10.8294 12.6545 11.2047 12.0763 11.6837 11.5845C12.1583 11.0926 12.7235 10.7043 13.3728 10.4174C14.0221 10.1305 14.7254 9.99027 15.4847 9.99027C16.2441 9.99027 16.9344 10.1326 17.5838 10.4174C18.2331 10.7022 18.8005 11.0905 19.2815 11.5845C19.7604 12.0763 20.138 12.6545 20.4141 13.3146C20.6881 13.9747 20.8261 14.6801 20.8261 15.4309H20.824Z" fill="#603913"/>
</g>
<defs>
<clipPath id="clip0_296_127">
<rect width="85.27" height="30.9912" fill="white"/>
</clipPath>
</defs>
</svg>
