<svg width="48" height="48" viewBox="0 0 48 48" fill="none" xmlns="http://www.w3.org/2000/svg">
<g clip-path="url(#clip0_40_32)">
<path d="M46.9982 41.3631C46.9982 43.56 45.2062 45.0118 43.0094 45.0118H23.0656C20.8687 45.0118 19.0768 43.56 19.0768 41.3631H46.9982ZM42.0122 22.9148H24.0628C23.5175 22.9148 23.0656 23.3666 23.0656 23.912V35.3797C23.0656 37.2961 24.6392 38.7761 26.5557 38.7761H37.5248C39.488 38.7761 41.1807 37.2408 41.015 34.8811C50.0218 35.4002 50.2796 23.3299 42.0122 22.9148ZM41.015 31.8895V25.9063C45.9616 25.1127 46.7246 32.3811 41.015 31.8895ZM25.0856 21.1098H28.0833L25.846 17.6018V5.81018H28.2906C30.1192 5.81018 30.1192 3.22314 28.2906 3.22314H10.4846C8.65612 3.22314 8.65612 5.81018 10.4846 5.81018H12.9292V17.6018L0.540465 38.1466C-0.622691 40.1261 0.107434 41.3632 2.57765 41.3632H17.1998V38.776H3.17943L15.5505 18.2627V5.81018H23.2243V18.2628L25.0856 21.1098ZM20.5282 36.1787H7.93978L15.892 22.9148H20.5281L20.5282 36.1787Z" fill="#371F13"/>
</g>
<defs>
<clipPath id="clip0_40_32">
<rect width="48" height="48" fill="white"/>
</clipPath>
</defs>
</svg>
