<svg width="48" height="48" viewBox="0 0 48 48" fill="none" xmlns="http://www.w3.org/2000/svg">
<path fill-rule="evenodd" clip-rule="evenodd" d="M41.94 7.45708L40.953 7.30008L40.694 6.33408L42.183 5.93408L41.94 7.45708ZM28.72 21.2871L27.869 21.8111L27.867 21.8091L27.864 21.8041L27.854 21.7881L27.82 21.7311L27.7 21.5241C27.56 21.2792 27.425 21.0314 27.295 20.7811C26.8833 19.9942 26.5245 19.1807 26.221 18.3461C25.883 17.4021 25.593 16.3211 25.548 15.2751C25.504 14.2331 25.698 13.1021 26.474 12.2151C27.171 11.4191 28.485 10.6861 29.866 10.0521C31.297 9.39308 32.981 8.76108 34.576 8.21408C36.5517 7.53949 38.5473 6.92455 40.56 6.37008L40.66 6.34208L40.695 6.33208L40.955 7.29908L41.942 7.45608L41.936 7.49308L41.919 7.59908C41.8192 8.21257 41.7145 8.82525 41.605 9.43708C41.3386 10.9417 41.0478 12.4419 40.733 13.9371C40.377 15.6181 39.963 17.3801 39.524 18.8551C39.3284 19.5295 39.0991 20.1937 38.837 20.8451C38.609 21.3951 38.339 21.9291 38.011 22.3051C37.309 23.1071 36.216 23.3581 35.261 23.4221C34.265 23.4891 33.161 23.3681 32.168 23.1921C31.2824 23.0327 30.4053 22.8291 29.54 22.5821C29.1859 22.4824 28.8338 22.3757 28.484 22.2621L28.421 22.2401L28.404 22.2341L28.399 22.2331H28.397L28.72 21.2871ZM28.72 21.2871L27.869 21.8111L28.057 22.1161L28.397 22.2331L28.72 21.2871ZM29.392 20.4541C30.4161 20.7725 31.4583 21.0296 32.513 21.2241C33.437 21.3871 34.361 21.4791 35.127 21.4271C35.936 21.3731 36.342 21.1751 36.505 20.9891C36.609 20.8691 36.779 20.5851 36.989 20.0791C37.2244 19.4921 37.4303 18.8936 37.606 18.2861C38.023 16.8861 38.424 15.1831 38.776 13.5241C39.1138 11.919 39.4232 10.3081 39.704 8.69208L39.395 8.78208C38.286 9.10908 36.788 9.57008 35.225 10.1061C33.659 10.6431 32.046 11.2501 30.701 11.8691C29.305 12.5111 28.363 13.0941 27.979 13.5331C27.672 13.8831 27.514 14.4221 27.547 15.1891C27.579 15.9521 27.798 16.8191 28.104 17.6701C28.4533 18.633 28.8842 19.5644 29.392 20.4541ZM10.263 9.97408L10.004 10.9401L9.01599 11.0971L8.77399 9.57508L10.263 9.97408ZM19.945 22.3071L20.796 22.8301L20.798 22.8281L20.8 22.8241L20.808 22.8111L20.837 22.7631L20.937 22.5931C21.4152 21.758 21.8217 20.8839 22.152 19.9801C22.43 19.2041 22.672 18.3051 22.709 17.4291C22.747 16.5561 22.585 15.5821 21.911 14.8121C21.315 14.1301 20.212 13.5221 19.092 13.0061C17.921 12.4671 16.546 11.9511 15.247 11.5061C13.638 10.9571 12.013 10.4566 10.374 10.0051L10.292 9.98208L10.263 9.97408L10.004 10.9401L9.01599 11.0971L9.02099 11.1271L9.03499 11.2141L9.08899 11.5401C9.35874 13.1576 9.66248 14.7693 9.99999 16.3741C10.29 17.7421 10.628 19.1791 10.986 20.3841C11.166 20.9861 11.354 21.5471 11.551 22.0201C11.738 22.4701 11.967 22.9291 12.255 23.2571C12.875 23.9671 13.828 24.1771 14.617 24.2291C15.449 24.2851 16.362 24.1841 17.177 24.0411C18.2004 23.8581 19.2096 23.6028 20.197 23.2771L20.248 23.2601L20.263 23.2551L20.268 23.2531L19.945 22.3071ZM19.945 22.3071L20.796 22.8301L20.608 23.1361L20.268 23.2531L19.945 22.3071ZM19.272 21.4731C19.3353 21.3597 19.4093 21.2221 19.494 21.0601C19.732 20.6021 20.028 19.9781 20.269 19.3041C20.514 18.6221 20.686 17.9371 20.711 17.3441C20.737 16.7451 20.611 16.3641 20.406 16.1281C20.123 15.8061 19.393 15.3461 18.256 14.8231C17.172 14.3241 15.868 13.8331 14.598 13.3981C13.4917 13.0203 12.3774 12.6662 11.256 12.3361L11.26 12.3611C11.43 13.3211 11.672 14.6171 11.957 15.9601C12.242 17.3061 12.567 18.6831 12.903 19.8141C13.072 20.3801 13.238 20.8691 13.398 21.2531C13.568 21.6601 13.696 21.8671 13.76 21.9411C13.842 22.0341 14.107 22.1911 14.751 22.2341C15.352 22.2741 16.086 22.2021 16.83 22.0711C17.6557 21.9228 18.4714 21.7238 19.272 21.4731ZM17.082 31.0061C16.828 31.0201 16.704 31.0561 16.672 31.0701C16.219 31.2751 14.843 31.7551 13.655 32.1601C13.045 32.3691 12.46 32.5651 12.028 32.7101L12 32.7201V38.1231C12.176 38.1151 12.365 38.1081 12.558 38.1011C13.386 38.0711 14.371 38.0411 14.798 38.0591C16.59 38.1301 17.936 38.5541 19.182 38.9471L19.209 38.9561C20.377 39.3241 21.459 39.6621 22.876 39.7691C23.276 39.7991 23.665 39.8381 24.028 39.8741H24.033C25.427 40.0141 26.345 40.0841 27.056 39.8261C27.609 39.6251 29.634 38.6861 31.676 37.6591C32.686 37.1511 33.676 36.6341 34.463 36.1911C34.858 35.9691 35.193 35.7711 35.45 35.6051C35.5773 35.5224 35.68 35.4524 35.758 35.3951L35.848 35.3251L35.876 35.3011C35.976 35.2001 36.082 34.8481 35.91 34.5171C35.829 34.3623 35.6953 34.2417 35.533 34.1771C35.333 34.0901 34.993 34.0231 34.453 34.1121C33.235 34.3121 31.78 34.8981 30.327 35.4891L30.307 35.4981C29.593 35.7881 28.877 36.0791 28.242 36.2911C27.632 36.4941 26.955 36.6761 26.365 36.6411C25.555 36.5911 24.134 36.3811 22.962 36.1911C22.2885 36.0822 21.6158 35.9682 20.944 35.8491L20.814 35.8261L20.768 35.8171L20.958 33.8331L25.528 33.8881H25.538C25.5914 33.8823 25.6442 33.8723 25.696 33.8581C25.854 33.8181 26.125 33.7191 26.466 33.4781C26.571 33.4031 26.709 33.2651 26.838 33.0801C26.8913 33.0028 26.9367 32.9274 26.974 32.8541C26.4168 32.8182 25.8632 32.74 25.318 32.6201C25.0211 32.5554 24.7266 32.4804 24.435 32.3951L24.401 32.3851L18.804 31.1391L18.751 31.1301L18.541 31.0981C18.3123 31.0645 18.0825 31.0388 17.852 31.0211C17.5959 30.9996 17.3387 30.9946 17.082 31.0061ZM19 30.1601L19.181 29.1771L19.199 29.1801L24.917 30.4521L24.959 30.4651L24.967 30.4681L25.005 30.4791L25.163 30.5241C25.302 30.5621 25.502 30.6141 25.74 30.6661C26.226 30.7711 26.834 30.8681 27.396 30.8681C27.959 30.8681 28.571 31.0781 28.901 31.6761C29.183 32.1881 29.113 32.7421 29.014 33.1081C28.9219 33.4316 28.7849 33.7406 28.607 34.0261C28.9117 33.9061 29.2337 33.7767 29.573 33.6381L29.635 33.6121C31.013 33.0521 32.665 32.3801 34.128 32.1391C35.828 31.8611 37.103 32.4711 37.686 33.5991C38.2 34.5941 38.086 35.9061 37.301 36.7041C37.104 36.9041 36.811 37.1071 36.531 37.2881C36.1743 37.5137 35.8115 37.7294 35.443 37.9351C34.618 38.3991 33.597 38.9321 32.573 39.4471C30.551 40.4641 28.421 41.4591 27.737 41.7071C26.551 42.1371 25.179 42.0001 23.96 41.8781L23.833 41.8651C23.4641 41.8273 23.0947 41.7939 22.725 41.7651C21.065 41.6391 19.793 41.2381 18.631 40.8721L18.606 40.8641C17.356 40.4701 16.23 40.1191 14.718 40.0581C14.386 40.0451 13.492 40.0691 12.63 40.1011C12.1446 40.1187 11.6592 40.1384 11.174 40.1601L11.045 40.1661L9.99899 40.2141V31.2781L10.876 30.9871C11.5876 30.7506 12.2983 30.5113 13.008 30.2691C14.252 29.8441 15.506 29.4031 15.848 29.2491C16.215 29.0831 16.632 29.0291 16.966 29.0091C17.321 28.9891 17.686 29.0041 18.005 29.0281C18.3889 29.0587 18.7713 29.1065 19.151 29.1711L19.172 29.1751H19.178L19.18 29.1761H19.182L19 30.1601Z" fill="#371F13"/>
<path fill-rule="evenodd" clip-rule="evenodd" d="M35.15 13.2402C35.2498 13.3255 35.3318 13.4297 35.3914 13.5468C35.4509 13.6638 35.4868 13.7914 35.4971 13.9224C35.5073 14.0533 35.4916 14.185 35.4509 14.3098C35.4102 14.4347 35.3454 14.5504 35.26 14.6502C32.279 18.1282 28.568 23.2252 26.93 27.3682C26.8817 27.4903 26.8098 27.6017 26.7184 27.696C26.627 27.7904 26.5179 27.8658 26.3974 27.918C26.2769 27.9702 26.1472 27.9981 26.0159 28.0002C25.8846 28.0023 25.7541 27.9785 25.632 27.9302C25.5099 27.8818 25.3985 27.8099 25.3041 27.7185C25.2098 27.6272 25.1344 27.5181 25.0822 27.3976C25.03 27.277 25.0021 27.1474 25 27.0161C24.9979 26.8847 25.0217 26.7543 25.07 26.6322C26.833 22.1732 30.721 16.8722 33.74 13.3492C33.9127 13.1479 34.1582 13.0234 34.4226 13.0032C34.6871 12.9829 34.9487 13.0685 35.15 13.2412M15.38 16.4482C15.2769 16.5296 15.1908 16.6305 15.1267 16.7451C15.0626 16.8598 15.0217 16.986 15.0064 17.1165C14.9911 17.247 15.0016 17.3792 15.0374 17.5056C15.0732 17.632 15.1336 17.7501 15.215 17.8532C17.457 20.6982 19.905 24.3392 21.067 27.3592C21.1668 27.6002 21.3568 27.7927 21.5965 27.8956C21.8362 27.9985 22.1066 28.0037 22.3501 27.91C22.5936 27.8163 22.7908 27.6312 22.8997 27.3942C23.0086 27.1571 23.0206 26.8869 22.933 26.6412C21.662 23.3372 19.065 19.5062 16.785 16.6152C16.6209 16.4069 16.3809 16.2723 16.1176 16.241C15.8543 16.2097 15.5884 16.2842 15.38 16.4482Z" fill="#371F13"/>
<path d="M6 29H12V42H6V29Z" fill="#371F13"/>
</svg>
